<?xml version="1.0" encoding="UTF-8"?>
<svg xmlns="http://www.w3.org/2000/svg" xmlns:xlink="http://www.w3.org/1999/xlink" viewBox="0 0 50 50" width="50px" height="50px">
<g id="surface133441937">
<path style="fill-rule:nonzero;fill:rgb(0%,0%,0%);fill-opacity:1;stroke-width:1;stroke-linecap:butt;stroke-linejoin:round;stroke:rgb(80.000001%,80.000001%,80.000001%);stroke-opacity:1;stroke-miterlimit:10;" d="M 165.124431 85.999999 C 165.124431 129.624558 129.624558 165.124431 85.999999 165.124431 C 42.375439 165.124431 6.875566 129.624558 6.875566 85.999999 C 6.875566 42.375439 42.375439 6.875566 85.999999 6.875566 C 129.624558 6.875566 165.124431 42.375439 165.124431 85.999999 Z M 127.285838 82.566271 L 89.433726 82.566271 L 89.433726 44.714159 L 82.566271 44.714159 L 82.566271 82.566271 L 44.714159 82.566271 L 44.714159 89.433726 L 82.566271 89.433726 L 82.566271 127.285838 L 89.433726 127.285838 L 89.433726 89.433726 L 127.285838 89.433726 Z M 127.285838 82.566271 " transform="matrix(0.288953,0,0,0.288953,0.15,0.15)"/>
<path style=" stroke:none;fill-rule:nonzero;fill:rgb(90.588236%,29.803923%,23.529412%);fill-opacity:1;" d="M 25 2.136719 C 12.394531 2.136719 2.136719 12.394531 2.136719 25 C 2.136719 37.605469 12.394531 47.863281 25 47.863281 C 37.605469 47.863281 47.863281 37.605469 47.863281 25 C 47.863281 12.394531 37.605469 2.136719 25 2.136719 Z M 36.929688 25.992188 L 25.992188 25.992188 L 25.992188 36.929688 L 24.007812 36.929688 L 24.007812 25.992188 L 13.070312 25.992188 L 13.070312 24.007812 L 24.007812 24.007812 L 24.007812 13.070312 L 25.992188 13.070312 L 25.992188 24.007812 L 36.929688 24.007812 Z M 36.929688 25.992188 "/>
</g>
</svg>
